<svg width="63" height="48" viewBox="0 0 63 48" fill="none" xmlns="http://www.w3.org/2000/svg">
<path d="M14.3125 19.25C13.6157 19.25 12.9469 19.3562 12.2813 19.4531C12.4969 18.7281 12.7188 17.9906 13.075 17.3281C13.4313 16.3656 13.9875 15.5312 14.5407 14.6906C15.0032 13.7812 15.8188 13.1656 16.4188 12.3875C17.0469 11.6312 17.9032 11.1281 18.5813 10.5C19.2469 9.84375 20.1188 9.51562 20.8125 9.05312C21.5375 8.6375 22.1688 8.17812 22.8438 7.95937L24.5282 7.26562L26.0094 6.65L24.4938 0.59375L22.6282 1.04375C22.0313 1.19375 21.3032 1.36875 20.475 1.57812C19.6282 1.73437 18.725 2.1625 17.7188 2.55312C16.725 2.99687 15.575 3.29687 14.5063 4.00937C13.4313 4.69062 12.1907 5.25937 11.0969 6.17187C10.0375 7.1125 8.7594 7.92812 7.81565 9.125C6.7844 10.2437 5.76565 11.4187 4.97503 12.7562C4.0594 14.0312 3.43753 15.4312 2.78128 16.8156C2.18753 18.2 1.7094 19.6156 1.31878 20.9906C0.578152 23.7469 0.246902 26.3656 0.118777 28.6063C0.0125266 30.85 0.0750266 32.7156 0.206277 34.0656C0.253152 34.7031 0.340652 35.3219 0.403152 35.75L0.481276 36.275L0.562526 36.2563C1.11834 38.8526 2.39785 41.2385 4.25304 43.1381C6.10822 45.0376 8.46328 46.3731 11.0458 46.9901C13.6283 47.6071 16.3327 47.4803 18.8461 46.6245C21.3596 45.7687 23.5794 44.2187 25.2488 42.154C26.9182 40.0893 27.9689 37.5941 28.2795 34.9572C28.59 32.3202 28.1476 29.6492 27.0036 27.2532C25.8595 24.8571 24.0605 22.834 21.8146 21.4177C19.5687 20.0014 16.9677 19.2498 14.3125 19.25ZM48.6875 19.25C47.9907 19.25 47.3219 19.3562 46.6563 19.4531C46.8719 18.7281 47.0938 17.9906 47.45 17.3281C47.8063 16.3656 48.3625 15.5312 48.9156 14.6906C49.3782 13.7812 50.1938 13.1656 50.7938 12.3875C51.4219 11.6312 52.2781 11.1281 52.9563 10.5C53.6219 9.84375 54.4938 9.51562 55.1875 9.05312C55.9125 8.6375 56.5438 8.17812 57.2188 7.95937L58.9031 7.26562L60.3844 6.65L58.8688 0.59375L57.0031 1.04375C56.4063 1.19375 55.6782 1.36875 54.85 1.57812C54.0032 1.73437 53.1 2.1625 52.0938 2.55312C51.1031 3 49.95 3.29687 48.8813 4.0125C47.8063 4.69375 46.5657 5.2625 45.4719 6.175C44.4125 7.11562 43.1344 7.93125 42.1907 9.125C41.1594 10.2437 40.1407 11.4187 39.35 12.7562C38.4344 14.0312 37.8125 15.4312 37.1563 16.8156C36.5625 18.2 36.0844 19.6156 35.6938 20.9906C34.9532 23.7469 34.6219 26.3656 34.4938 28.6063C34.3875 30.85 34.45 32.7156 34.5813 34.0656C34.6282 34.7031 34.7156 35.3219 34.7781 35.75L34.8563 36.275L34.9375 36.2563C35.4933 38.8526 36.7729 41.2385 38.628 43.1381C40.4832 45.0376 42.8383 46.3731 45.4208 46.9901C48.0033 47.6071 50.7077 47.4803 53.2211 46.6245C55.7346 45.7687 57.9544 44.2187 59.6238 42.154C61.2932 40.0893 62.3439 37.5941 62.6545 34.9572C62.965 32.3202 62.5226 29.6492 61.3786 27.2532C60.2345 24.8571 58.4355 22.834 56.1896 21.4177C53.9437 20.0014 51.3427 19.2498 48.6875 19.25Z" fill="black"/>
</svg>
