<svg width="531" height="346" viewBox="0 0 531 346" fill="none" xmlns="http://www.w3.org/2000/svg">
<path d="M217.77 35.0769L313.148 0.211312C315.197 -0.539179 317.385 0.773044 318.033 3.13905C318.156 3.5772 318.216 4.03558 318.216 4.4962V332.665H215.053V39.3596C215.053 37.4025 216.153 35.6679 217.77 35.0769Z" fill="#D86421"/>
<path d="M56.4161 75.4844H165.419C167.568 75.4844 169.312 77.2284 169.312 79.3773V332.419H52.5232V79.3773C52.5232 77.2284 54.2672 75.4844 56.4161 75.4844Z" fill="#F37D39"/>
<path d="M291.452 208.088H392.669C394.818 208.088 396.562 209.832 396.562 211.981V328.77C396.562 330.919 394.818 332.663 392.669 332.663H291.452C289.303 332.663 287.559 330.919 287.559 328.77V211.981C287.559 209.832 289.303 208.088 291.452 208.088Z" fill="#EA7938"/>
<path d="M281.233 192.517H401.915C404.064 192.517 405.808 194.261 405.808 196.41V208.088C405.808 210.237 404.064 211.981 401.915 211.981H281.233C279.084 211.981 277.34 210.237 277.34 208.088V196.41C277.34 194.261 279.084 192.517 281.233 192.517Z" fill="#EA7938"/>
<path d="M143.034 176.944H228.679C230.828 176.944 232.572 178.688 232.572 180.837V332.662H139.141V180.837C139.141 178.688 140.885 176.944 143.034 176.944Z" fill="#FC8540"/>
<path d="M263.737 301.764C360.469 301.764 451.773 310.56 522.887 326.262C528.135 327.423 531.45 332.618 530.29 337.865C529.133 343.113 523.938 346.428 518.689 345.27C449.799 330.058 361.083 321.416 266.848 321.229H263.737C169.773 321.229 81.1055 329.634 11.8557 344.602C6.60027 345.737 1.42264 342.399 0.285898 337.145C-0.848883 331.892 2.48931 326.71 7.74286 325.575C77.6447 310.469 166.46 301.953 260.565 301.764H263.737Z" fill="#FF5C00"/>
</svg>
